<?xml version="1.0" standalone="no"?>
<!DOCTYPE svg PUBLIC "-//W3C//DTD SVG 20010904//EN"
 "http://www.w3.org/TR/2001/REC-SVG-20010904/DTD/svg10.dtd">
<svg version="1.0" xmlns="http://www.w3.org/2000/svg"
 width="512.000000pt" height="512.000000pt" viewBox="0 0 512.000000 512.000000"
 preserveAspectRatio="xMidYMid meet">
<metadata>
Created by potrace 1.11, written by Peter Selinger 2001-2013
</metadata>
<g transform="translate(0.000000,512.000000) scale(0.100000,-0.100000)"
fill="#000000" stroke="none">
<path d="M2270 5104 c-670 -67 -1023 -301 -1155 -763 -39 -138 -56 -263 -62
-466 l-6 -190 -81 3 c-265 10 -509 -163 -612 -434 -70 -185 -71 -427 -3 -659
36 -119 136 -362 224 -540 139 -283 276 -485 449 -664 128 -131 239 -214 392
-293 l121 -62 12 -81 c51 -334 124 -616 187 -715 84 -134 269 -203 614 -230
215 -17 1080 -8 1222 13 211 31 346 80 427 152 118 107 180 409 207 1018 l6
149 48 101 c204 430 327 1158 356 2107 6 230 -6 474 -31 621 -103 590 -457
861 -1224 934 -201 19 -895 19 -1091 -1z m1000 -215 c646 -51 956 -229 1063
-609 48 -170 52 -216 52 -635 -1 -608 -49 -1107 -151 -1565 -81 -361 -202
-652 -315 -757 -84 -78 -377 -147 -819 -195 -173 -18 -265 -22 -590 -22 -450
-1 -499 4 -710 76 -407 138 -618 304 -861 675 -134 205 -331 636 -385 843 -86
328 5 614 229 725 79 39 171 53 242 38 l40 -9 16 -154 c45 -419 132 -906 185
-1040 25 -63 88 -91 148 -66 76 32 80 70 28 266 -52 199 -131 727 -163 1090
-14 162 -7 446 16 578 41 247 134 422 279 529 155 115 366 182 701 224 212 26
713 30 995 8z m704 -3866 c-31 -417 -71 -628 -127 -681 -31 -30 -103 -59 -183
-76 -349 -74 -1317 -67 -1584 10 -69 20 -123 48 -150 76 -11 12 -33 63 -49
113 -39 122 -113 485 -98 485 2 0 24 -7 48 -15 206 -73 943 -78 1459 -9 284
37 523 90 624 138 28 13 54 25 58 25 4 1 5 -29 2 -66z"/>
</g>
</svg>
